STARTFONT 2.1
COMMENT
COMMENT Converted from OpenType font "Andika-Bold-Stripped.otf" by "otf2bdf 3.0".
COMMENT
FONT -FreeType-Andika-Bold-R-Normal--11-80-100-100-P-59-ISO10646-1
SIZE 8 100 100
FONTBOUNDINGBOX 12 12 -1 -3
STARTPROPERTIES 19
FOUNDRY "FreeType"
FAMILY_NAME "Andika"
WEIGHT_NAME "Bold"
SLANT "R"
SETWIDTH_NAME "Normal"
ADD_STYLE_NAME ""
PIXEL_SIZE 11
POINT_SIZE 80
RESOLUTION_X 100
RESOLUTION_Y 100
SPACING "P"
AVERAGE_WIDTH 59
CHARSET_REGISTRY "ISO10646"
CHARSET_ENCODING "1"
FONT_ASCENT 13
FONT_DESCENT 4
COPYRIGHT "Copyright (c) 2004-2022 SIL International"
_OTF_FONTFILE "Andika-Bold-Stripped.otf"
_OTF_PSNAME "Andika-Bold"
ENDPROPERTIES
CHARS 67
STARTCHAR 0020
ENCODING 32
SWIDTH 270 0
DWIDTH 3 0
BBX 0 0 0 0
BITMAP
ENDCHAR
STARTCHAR 002D
ENCODING 45
SWIDTH 450 0
DWIDTH 5 0
BBX 4 1 0 3
BITMAP
F0
ENDCHAR
STARTCHAR 002F
ENCODING 47
SWIDTH 540 0
DWIDTH 6 0
BBX 6 10 0 -1
BITMAP
0C
08
08
10
10
20
20
60
40
C0
ENDCHAR
STARTCHAR 0030
ENCODING 48
SWIDTH 630 0
DWIDTH 7 0
BBX 6 8 0 0
BITMAP
38
6C
44
C4
C4
44
6C
78
ENDCHAR
STARTCHAR 0031
ENCODING 49
SWIDTH 630 0
DWIDTH 7 0
BBX 5 8 1 0
BITMAP
60
E0
20
20
20
20
20
F8
ENDCHAR
STARTCHAR 0032
ENCODING 50
SWIDTH 630 0
DWIDTH 7 0
BBX 5 8 1 0
BITMAP
F0
98
18
18
30
60
C0
F8
ENDCHAR
STARTCHAR 0033
ENCODING 51
SWIDTH 630 0
DWIDTH 7 0
BBX 5 8 1 0
BITMAP
F0
98
18
70
78
08
98
F0
ENDCHAR
STARTCHAR 0034
ENCODING 52
SWIDTH 630 0
DWIDTH 7 0
BBX 6 8 0 0
BITMAP
0C
1C
3C
6C
4C
FC
0C
0C
ENDCHAR
STARTCHAR 0035
ENCODING 53
SWIDTH 630 0
DWIDTH 7 0
BBX 5 8 1 0
BITMAP
F8
80
80
F0
18
18
98
F0
ENDCHAR
STARTCHAR 0036
ENCODING 54
SWIDTH 630 0
DWIDTH 7 0
BBX 5 8 1 0
BITMAP
78
C8
80
F0
88
88
C8
70
ENDCHAR
STARTCHAR 0037
ENCODING 55
SWIDTH 630 0
DWIDTH 7 0
BBX 5 8 1 0
BITMAP
F8
18
10
30
20
60
40
C0
ENDCHAR
STARTCHAR 0038
ENCODING 56
SWIDTH 630 0
DWIDTH 7 0
BBX 6 8 0 0
BITMAP
38
4C
4C
38
6C
C4
4C
78
ENDCHAR
STARTCHAR 0039
ENCODING 57
SWIDTH 630 0
DWIDTH 7 0
BBX 6 8 0 0
BITMAP
78
4C
C4
4C
34
04
0C
78
ENDCHAR
STARTCHAR 003A
ENCODING 58
SWIDTH 360 0
DWIDTH 4 0
BBX 2 5 1 0
BITMAP
C0
C0
00
C0
C0
ENDCHAR
STARTCHAR 0041
ENCODING 65
SWIDTH 720 0
DWIDTH 8 0
BBX 7 8 0 0
BITMAP
18
18
3C
24
24
7E
42
C2
ENDCHAR
STARTCHAR 0042
ENCODING 66
SWIDTH 720 0
DWIDTH 8 0
BBX 6 8 1 0
BITMAP
F8
88
88
F0
98
8C
8C
F8
ENDCHAR
STARTCHAR 0043
ENCODING 67
SWIDTH 720 0
DWIDTH 8 0
BBX 7 8 0 0
BITMAP
3C
62
40
40
C0
40
62
3C
ENDCHAR
STARTCHAR 0044
ENCODING 68
SWIDTH 720 0
DWIDTH 8 0
BBX 6 8 1 0
BITMAP
F8
8C
84
84
84
84
8C
F8
ENDCHAR
STARTCHAR 0045
ENCODING 69
SWIDTH 630 0
DWIDTH 7 0
BBX 5 8 1 0
BITMAP
F8
80
80
F0
80
80
80
F8
ENDCHAR
STARTCHAR 0046
ENCODING 70
SWIDTH 630 0
DWIDTH 7 0
BBX 5 8 1 0
BITMAP
F8
80
80
F0
F0
80
80
80
ENDCHAR
STARTCHAR 0047
ENCODING 71
SWIDTH 720 0
DWIDTH 8 0
BBX 7 8 0 0
BITMAP
3E
62
40
40
CE
42
62
3E
ENDCHAR
STARTCHAR 0048
ENCODING 72
SWIDTH 720 0
DWIDTH 8 0
BBX 6 8 1 0
BITMAP
84
84
84
FC
FC
84
84
84
ENDCHAR
STARTCHAR 0049
ENCODING 73
SWIDTH 540 0
DWIDTH 6 0
BBX 4 8 1 0
BITMAP
F0
60
60
60
60
60
60
F0
ENDCHAR
STARTCHAR 004A
ENCODING 74
SWIDTH 540 0
DWIDTH 6 0
BBX 5 8 0 0
BITMAP
18
18
18
18
18
18
90
F0
ENDCHAR
STARTCHAR 004B
ENCODING 75
SWIDTH 720 0
DWIDTH 8 0
BBX 6 8 1 0
BITMAP
8C
98
B0
E0
E0
B0
98
8C
ENDCHAR
STARTCHAR 004C
ENCODING 76
SWIDTH 540 0
DWIDTH 6 0
BBX 5 8 1 0
BITMAP
80
80
80
80
80
80
80
F8
ENDCHAR
STARTCHAR 004D
ENCODING 77
SWIDTH 900 0
DWIDTH 10 0
BBX 8 8 1 0
BITMAP
C3
E7
A5
A5
A5
B9
99
99
ENDCHAR
STARTCHAR 004E
ENCODING 78
SWIDTH 720 0
DWIDTH 8 0
BBX 6 8 1 0
BITMAP
C4
C4
E4
B4
94
9C
8C
84
ENDCHAR
STARTCHAR 004F
ENCODING 79
SWIDTH 720 0
DWIDTH 8 0
BBX 7 8 0 0
BITMAP
3C
66
42
42
C2
42
66
3C
ENDCHAR
STARTCHAR 0050
ENCODING 80
SWIDTH 630 0
DWIDTH 7 0
BBX 6 8 1 0
BITMAP
F0
98
8C
88
F8
80
80
80
ENDCHAR
STARTCHAR 0051
ENCODING 81
SWIDTH 720 0
DWIDTH 8 0
BBX 8 9 0 -1
BITMAP
3C
66
42
42
C2
42
66
3E
03
ENDCHAR
STARTCHAR 0052
ENCODING 82
SWIDTH 630 0
DWIDTH 7 0
BBX 6 8 1 0
BITMAP
F0
98
88
98
F0
90
98
8C
ENDCHAR
STARTCHAR 0053
ENCODING 83
SWIDTH 630 0
DWIDTH 7 0
BBX 5 8 1 0
BITMAP
78
C8
80
F0
38
08
98
F0
ENDCHAR
STARTCHAR 0054
ENCODING 84
SWIDTH 630 0
DWIDTH 7 0
BBX 7 8 0 0
BITMAP
FE
10
10
10
10
10
10
10
ENDCHAR
STARTCHAR 0055
ENCODING 85
SWIDTH 720 0
DWIDTH 8 0
BBX 6 8 1 0
BITMAP
8C
8C
8C
8C
8C
8C
CC
78
ENDCHAR
STARTCHAR 0056
ENCODING 86
SWIDTH 720 0
DWIDTH 8 0
BBX 8 8 0 0
BITMAP
C3
42
66
64
24
3C
38
18
ENDCHAR
STARTCHAR 0057
ENCODING 87
SWIDTH 1080 0
DWIDTH 12 0
BBX 11 8 0 0
BITMAP
C620
4660
4E60
6A40
6B40
29C0
3980
3180
ENDCHAR
STARTCHAR 0058
ENCODING 88
SWIDTH 630 0
DWIDTH 7 0
BBX 6 8 1 0
BITMAP
8C
D8
70
30
70
50
D8
8C
ENDCHAR
STARTCHAR 0059
ENCODING 89
SWIDTH 630 0
DWIDTH 7 0
BBX 7 8 0 0
BITMAP
C6
64
2C
38
10
10
10
10
ENDCHAR
STARTCHAR 005A
ENCODING 90
SWIDTH 630 0
DWIDTH 7 0
BBX 6 8 0 0
BITMAP
7C
0C
18
10
30
60
40
FC
ENDCHAR
STARTCHAR 0061
ENCODING 97
SWIDTH 630 0
DWIDTH 7 0
BBX 5 6 1 0
BITMAP
30
F8
98
98
A8
E8
ENDCHAR
STARTCHAR 0062
ENCODING 98
SWIDTH 630 0
DWIDTH 7 0
BBX 5 9 1 0
BITMAP
80
80
80
B0
F8
88
88
98
F0
ENDCHAR
STARTCHAR 0063
ENCODING 99
SWIDTH 540 0
DWIDTH 6 0
BBX 5 6 0 0
BITMAP
30
78
40
C0
40
78
ENDCHAR
STARTCHAR 0064
ENCODING 100
SWIDTH 630 0
DWIDTH 7 0
BBX 5 9 1 0
BITMAP
18
08
08
68
F8
88
88
98
E8
ENDCHAR
STARTCHAR 0065
ENCODING 101
SWIDTH 540 0
DWIDTH 6 0
BBX 5 6 0 0
BITMAP
30
78
48
F8
40
78
ENDCHAR
STARTCHAR 0066
ENCODING 102
SWIDTH 360 0
DWIDTH 4 0
BBX 5 9 0 0
BITMAP
38
60
60
60
F0
60
60
60
60
ENDCHAR
STARTCHAR 0067
ENCODING 103
SWIDTH 540 0
DWIDTH 6 0
BBX 5 9 1 -3
BITMAP
30
F8
98
98
98
F8
18
F0
60
ENDCHAR
STARTCHAR 0068
ENCODING 104
SWIDTH 630 0
DWIDTH 7 0
BBX 5 9 1 0
BITMAP
80
80
80
B0
F8
98
98
98
98
ENDCHAR
STARTCHAR 0069
ENCODING 105
SWIDTH 270 0
DWIDTH 3 0
BBX 2 8 1 0
BITMAP
C0
00
80
80
80
80
C0
C0
ENDCHAR
STARTCHAR 006A
ENCODING 106
SWIDTH 360 0
DWIDTH 4 0
BBX 4 11 -1 -3
BITMAP
30
00
30
30
30
30
30
30
30
E0
40
ENDCHAR
STARTCHAR 006B
ENCODING 107
SWIDTH 540 0
DWIDTH 6 0
BBX 5 9 1 0
BITMAP
80
80
80
98
B0
E0
E0
B0
98
ENDCHAR
STARTCHAR 006C
ENCODING 108
SWIDTH 270 0
DWIDTH 3 0
BBX 2 9 1 0
BITMAP
80
80
80
80
80
80
80
C0
C0
ENDCHAR
STARTCHAR 006D
ENCODING 109
SWIDTH 900 0
DWIDTH 10 0
BBX 8 6 1 0
BITMAP
B2
FF
9B
9B
9B
9B
ENDCHAR
STARTCHAR 006E
ENCODING 110
SWIDTH 630 0
DWIDTH 7 0
BBX 5 6 1 0
BITMAP
B0
F8
88
88
88
88
ENDCHAR
STARTCHAR 006F
ENCODING 111
SWIDTH 540 0
DWIDTH 6 0
BBX 6 6 0 0
BITMAP
30
78
4C
CC
4C
78
ENDCHAR
STARTCHAR 0070
ENCODING 112
SWIDTH 630 0
DWIDTH 7 0
BBX 5 9 1 -3
BITMAP
B0
F8
88
88
98
F0
80
80
80
ENDCHAR
STARTCHAR 0071
ENCODING 113
SWIDTH 630 0
DWIDTH 7 0
BBX 5 9 1 -3
BITMAP
70
F8
98
98
98
F8
18
18
18
ENDCHAR
STARTCHAR 0072
ENCODING 114
SWIDTH 450 0
DWIDTH 5 0
BBX 4 6 1 0
BITMAP
B0
F0
D0
80
80
80
ENDCHAR
STARTCHAR 0073
ENCODING 115
SWIDTH 540 0
DWIDTH 6 0
BBX 4 6 1 0
BITMAP
60
F0
C0
70
10
F0
ENDCHAR
STARTCHAR 0074
ENCODING 116
SWIDTH 450 0
DWIDTH 5 0
BBX 4 7 0 0
BITMAP
60
60
F0
60
60
60
70
ENDCHAR
STARTCHAR 0075
ENCODING 117
SWIDTH 630 0
DWIDTH 7 0
BBX 5 6 1 0
BITMAP
98
98
98
98
98
E8
ENDCHAR
STARTCHAR 0076
ENCODING 118
SWIDTH 540 0
DWIDTH 6 0
BBX 6 6 0 0
BITMAP
CC
48
48
78
30
30
ENDCHAR
STARTCHAR 0077
ENCODING 119
SWIDTH 810 0
DWIDTH 9 0
BBX 8 6 0 0
BITMAP
C9
D9
5B
56
76
26
ENDCHAR
STARTCHAR 0078
ENCODING 120
SWIDTH 540 0
DWIDTH 6 0
BBX 6 6 0 0
BITMAP
CC
68
38
30
78
4C
ENDCHAR
STARTCHAR 0079
ENCODING 121
SWIDTH 540 0
DWIDTH 6 0
BBX 6 9 0 -3
BITMAP
CC
48
48
78
30
30
30
E0
40
ENDCHAR
STARTCHAR 007A
ENCODING 122
SWIDTH 540 0
DWIDTH 6 0
BBX 4 6 1 0
BITMAP
F0
F0
20
40
C0
F0
ENDCHAR
STARTCHAR 00B0
ENCODING 176
SWIDTH 360 0
DWIDTH 4 0
BBX 4 3 0 5
BITMAP
60
90
60
ENDCHAR
ENDFONT
